# xmcd
#
# Track frame offsets: 
#        150
#        19055
#        31397
#        47590
#        62027
#        83915
#        99607
#        118252
#        136150
#        147287
#        159900
#        173660
#        191932
#        211755
#        225402
#        248817
#        267635
#        283212
#
# Disc length: 4063 seconds
#
# Revision: 0
# Processed by: cddbd v1.5.2PL0 Copyright (c) Steve Scherf et al.
# Submitted via: ExactAudioCopy v1.3
#
DISCID=010fdd12
DTITLE=Various Artist - Your Everlasting Favourite Sentimental Hits V
DTITLE=olume 3
DYEAR=1900
DGENRE=Pop
TTITLE0=Don't Cry Joni
TTITLE1=Daddy's Home
TTITLE2=El Condor Pasa
TTITLE3=San Francisco
TTITLE4=Just The Way You Are
TTITLE5=Always On My Mind
TTITLE6=Blowing In The Wind
TTITLE7=Lady
TTITLE8=Help Me Make It Through The Night
TTITLE9=You Don't Have To Say You Love Me
TTITLE10=Morning Has Broken
TTITLE11=Somewhere Out There
TTITLE12=Just Once
TTITLE13=I'll Never Fall In Love Again
TTITLE14=Dessert Moon
TTITLE15=You Get It All
TTITLE16=Desperado
TTITLE17=How Am I Supposed To Live Without You
EXTD=
EXTT0=
EXTT1=
EXTT2=
EXTT3=
EXTT4=
EXTT5=
EXTT6=
EXTT7=
EXTT8=
EXTT9=
EXTT10=
EXTT11=
EXTT12=
EXTT13=
EXTT14=
EXTT15=
EXTT16=
EXTT17=
PLAYORDER=
